<?xml version="1.0" encoding="UTF-8"?>
<svg xmlns="http://www.w3.org/2000/svg" viewBox="0 0 1200 800" width="1200" height="800"><defs><radialGradient id="ocean" cx="50%" cy="50%" r="70%"><stop offset="0%" stop-color="#0f1d35" /><stop offset="100%" stop-color="#0a1628" /></radialGradient><filter id="glow"><feGaussianBlur stdDeviation="2" result="blur" /><feMerge><feMergeNode in="blur" /><feMergeNode in="SourceGraphic" /></feMerge></filter></defs><rect width="1200" height="800" fill="url(#ocean)" /><g opacity="0.05"><line x1="0" y1="0" x2="1200" y2="0" stroke="#2a9d8f" stroke-width="0.5" /><line x1="0" y1="12" x2="1200" y2="12" stroke="#2a9d8f" stroke-width="0.5" /><line x1="0" y1="24" x2="1200" y2="24" stroke="#2a9d8f" stroke-width="0.5" /><line x1="0" y1="36" x2="1200" y2="36" stroke="#2a9d8f" stroke-width="0.5" /><line x1="0" y1="48" x2="1200" y2="48" stroke="#2a9d8f" stroke-width="0.5" /><line x1="0" y1="60" x2="1200" y2="60" stroke="#2a9d8f" stroke-width="0.5" /><line x1="0" y1="72" x2="1200" y2="72" stroke="#2a9d8f" stroke-width="0.5" /><line x1="0" y1="84" x2="1200" y2="84" stroke="#2a9d8f" stroke-width="0.5" /><line x1="0" y1="96" x2="1200" y2="96" stroke="#2a9d8f" stroke-width="0.5" /><line x1="0" y1="108" x2="1200" y2="108" stroke="#2a9d8f" stroke-width="0.5" /><line x1="0" y1="120" x2="1200" y2="120" stroke="#2a9d8f" stroke-width="0.5" /><line x1="0" y1="132" x2="1200" y2="132" stroke="#2a9d8f" stroke-width="0.5" /><line x1="0" y1="144" x2="1200" y2="144" stroke="#2a9d8f" stroke-width="0.5" /><line x1="0" y1="156" x2="1200" y2="156" stroke="#2a9d8f" stroke-width="0.5" /><line x1="0" y1="168" x2="1200" y2="168" stroke="#2a9d8f" stroke-width="0.5" /><line x1="0" y1="180" x2="1200" y2="180" stroke="#2a9d8f" stroke-width="0.5" /><line x1="0" y1="192" x2="1200" y2="192" stroke="#2a9d8f" stroke-width="0.5" /><line x1="0" y1="204" x2="1200" y2="204" stroke="#2a9d8f" stroke-width="0.5" /><line x1="0" y1="216" x2="1200" y2="216" stroke="#2a9d8f" stroke-width="0.5" /><line x1="0" y1="228" x2="1200" y2="228" stroke="#2a9d8f" stroke-width="0.5" /><line x1="0" y1="240" x2="1200" y2="240" stroke="#2a9d8f" stroke-width="0.5" /><line x1="0" y1="252" x2="1200" y2="252" stroke="#2a9d8f" stroke-width="0.5" /><line x1="0" y1="264" x2="1200" y2="264" stroke="#2a9d8f" stroke-width="0.5" /><line x1="0" y1="276" x2="1200" y2="276" stroke="#2a9d8f" stroke-width="0.5" /><line x1="0" y1="288" x2="1200" y2="288" stroke="#2a9d8f" stroke-width="0.5" /><line x1="0" y1="300" x2="1200" y2="300" stroke="#2a9d8f" stroke-width="0.5" /><line x1="0" y1="312" x2="1200" y2="312" stroke="#2a9d8f" stroke-width="0.5" /><line x1="0" y1="324" x2="1200" y2="324" stroke="#2a9d8f" stroke-width="0.5" /><line x1="0" y1="336" x2="1200" y2="336" stroke="#2a9d8f" stroke-width="0.5" /><line x1="0" y1="348" x2="1200" y2="348" stroke="#2a9d8f" stroke-width="0.5" /><line x1="0" y1="360" x2="1200" y2="360" stroke="#2a9d8f" stroke-width="0.5" /><line x1="0" y1="372" x2="1200" y2="372" stroke="#2a9d8f" stroke-width="0.5" /><line x1="0" y1="384" x2="1200" y2="384" stroke="#2a9d8f" stroke-width="0.5" /><line x1="0" y1="396" x2="1200" y2="396" stroke="#2a9d8f" stroke-width="0.5" /><line x1="0" y1="408" x2="1200" y2="408" stroke="#2a9d8f" stroke-width="0.5" /><line x1="0" y1="420" x2="1200" y2="420" stroke="#2a9d8f" stroke-width="0.5" /><line x1="0" y1="432" x2="1200" y2="432" stroke="#2a9d8f" stroke-width="0.5" /><line x1="0" y1="444" x2="1200" y2="444" stroke="#2a9d8f" stroke-width="0.5" /><line x1="0" y1="456" x2="1200" y2="456" stroke="#2a9d8f" stroke-width="0.5" /><line x1="0" y1="468" x2="1200" y2="468" stroke="#2a9d8f" stroke-width="0.5" /><line x1="0" y1="480" x2="1200" y2="480" stroke="#2a9d8f" stroke-width="0.5" /><line x1="0" y1="492" x2="1200" y2="492" stroke="#2a9d8f" stroke-width="0.5" /><line x1="0" y1="504" x2="1200" y2="504" stroke="#2a9d8f" stroke-width="0.5" /><line x1="0" y1="516" x2="1200" y2="516" stroke="#2a9d8f" stroke-width="0.5" /><line x1="0" y1="528" x2="1200" y2="528" stroke="#2a9d8f" stroke-width="0.5" /><line x1="0" y1="540" x2="1200" y2="540" stroke="#2a9d8f" stroke-width="0.5" /><line x1="0" y1="552" x2="1200" y2="552" stroke="#2a9d8f" stroke-width="0.5" /><line x1="0" y1="564" x2="1200" y2="564" stroke="#2a9d8f" stroke-width="0.5" /><line x1="0" y1="576" x2="1200" y2="576" stroke="#2a9d8f" stroke-width="0.5" /><line x1="0" y1="588" x2="1200" y2="588" stroke="#2a9d8f" stroke-width="0.5" /><line x1="0" y1="600" x2="1200" y2="600" stroke="#2a9d8f" stroke-width="0.5" /><line x1="0" y1="612" x2="1200" y2="612" stroke="#2a9d8f" stroke-width="0.5" /><line x1="0" y1="624" x2="1200" y2="624" stroke="#2a9d8f" stroke-width="0.5" /><line x1="0" y1="636" x2="1200" y2="636" stroke="#2a9d8f" stroke-width="0.5" /><line x1="0" y1="648" x2="1200" y2="648" stroke="#2a9d8f" stroke-width="0.5" /><line x1="0" y1="660" x2="1200" y2="660" stroke="#2a9d8f" stroke-width="0.5" /><line x1="0" y1="672" x2="1200" y2="672" stroke="#2a9d8f" stroke-width="0.5" /><line x1="0" y1="684" x2="1200" y2="684" stroke="#2a9d8f" stroke-width="0.5" /><line x1="0" y1="696" x2="1200" y2="696" stroke="#2a9d8f" stroke-width="0.5" /><line x1="0" y1="708" x2="1200" y2="708" stroke="#2a9d8f" stroke-width="0.5" /><line x1="0" y1="720" x2="1200" y2="720" stroke="#2a9d8f" stroke-width="0.5" /><line x1="0" y1="732" x2="1200" y2="732" stroke="#2a9d8f" stroke-width="0.5" /><line x1="0" y1="744" x2="1200" y2="744" stroke="#2a9d8f" stroke-width="0.5" /><line x1="0" y1="756" x2="1200" y2="756" stroke="#2a9d8f" stroke-width="0.5" /><line x1="0" y1="768" x2="1200" y2="768" stroke="#2a9d8f" stroke-width="0.5" /><line x1="0" y1="780" x2="1200" y2="780" stroke="#2a9d8f" stroke-width="0.5" /><line x1="0" y1="792" x2="1200" y2="792" stroke="#2a9d8f" stroke-width="0.5" /></g><g opacity="0.12"><ellipse cx="480.4" cy="244.44444444444443" rx="169.19999999999993" ry="106.66666666666666" fill="#3b82f6" stroke="#3b82f6" stroke-width="1" /><ellipse cx="239.46666666666667" cy="210.37037037037035" rx="136.26666666666668" ry="99.25925925925924" fill="#06b6d4" stroke="#06b6d4" stroke-width="1" /><ellipse cx="360.8" cy="533.3333333333334" rx="153.59999999999997" ry="120.0" fill="#eab308" stroke="#eab308" stroke-width="1" /><ellipse cx="870.4" cy="317.037037037037" rx="184.80000000000007" ry="158.51851851851853" fill="#ef4444" stroke="#ef4444" stroke-width="1" /><ellipse cx="898.1333333333333" cy="577.7777777777778" rx="170.93333333333328" ry="75.55555555555566" fill="#22c55e" stroke="#22c55e" stroke-width="1" /></g><g><line x1="454.4" y1="222.2" x2="579.2" y2="186.7" stroke="#475569" stroke-width="1" opacity="0.6" stroke-dasharray="4,4" /><line x1="454.4" y1="222.2" x2="371.2" y2="257.8" stroke="#475569" stroke-width="1" opacity="0.6" stroke-dasharray="4,4" /><line x1="579.2" y1="186.7" x2="371.2" y2="257.8" stroke="#475569" stroke-width="1" opacity="0.6" stroke-dasharray="4,4" /><line x1="454.4" y1="222.2" x2="516.8" y2="311.1" stroke="#475569" stroke-width="1" opacity="0.6" stroke-dasharray="4,4" /><line x1="371.2" y1="257.8" x2="516.8" y2="311.1" stroke="#475569" stroke-width="1" opacity="0.6" stroke-dasharray="4,4" /><line x1="246.4" y1="151.1" x2="163.2" y2="222.2" stroke="#475569" stroke-width="1" opacity="0.6" stroke-dasharray="4,4" /><line x1="246.4" y1="151.1" x2="308.8" y2="257.8" stroke="#475569" stroke-width="1" opacity="0.6" stroke-dasharray="4,4" /><line x1="163.2" y1="222.2" x2="308.8" y2="257.8" stroke="#475569" stroke-width="1" opacity="0.6" stroke-dasharray="4,4" /><line x1="454.4" y1="222.2" x2="246.4" y2="151.1" stroke="#64748b" stroke-width="1.5" opacity="0.6" /><line x1="371.2" y1="257.8" x2="246.4" y2="151.1" stroke="#64748b" stroke-width="1.5" opacity="0.6" /><line x1="516.8" y1="311.1" x2="163.2" y2="222.2" stroke="#64748b" stroke-width="1.5" opacity="0.6" /><line x1="454.4" y1="222.2" x2="371.2" y2="471.1" stroke="#64748b" stroke-width="1.5" opacity="0.6" /><line x1="579.2" y1="186.7" x2="371.2" y2="471.1" stroke="#64748b" stroke-width="1.5" opacity="0.6" /><line x1="371.2" y1="257.8" x2="288.0" y2="542.2" stroke="#64748b" stroke-width="1.5" opacity="0.6" /><line x1="371.2" y1="471.1" x2="288.0" y2="542.2" stroke="#475569" stroke-width="1" opacity="0.6" stroke-dasharray="4,4" /><line x1="371.2" y1="471.1" x2="454.4" y2="506.7" stroke="#475569" stroke-width="1" opacity="0.6" stroke-dasharray="4,4" /><line x1="288.0" y1="542.2" x2="454.4" y2="506.7" stroke="#475569" stroke-width="1" opacity="0.6" stroke-dasharray="4,4" /><line x1="371.2" y1="471.1" x2="329.6" y2="613.3" stroke="#475569" stroke-width="1" opacity="0.6" stroke-dasharray="4,4" /><line x1="288.0" y1="542.2" x2="329.6" y2="613.3" stroke="#475569" stroke-width="1" opacity="0.6" stroke-dasharray="4,4" /><line x1="371.2" y1="471.1" x2="745.6" y2="364.4" stroke="#eab308" stroke-width="2" opacity="0.6" /><line x1="454.4" y1="506.7" x2="745.6" y2="364.4" stroke="#64748b" stroke-width="1.5" opacity="0.6" /><line x1="329.6" y1="613.3" x2="745.6" y2="364.4" stroke="#64748b" stroke-width="1.5" opacity="0.6" /><line x1="745.6" y1="364.4" x2="787.2" y2="257.8" stroke="#475569" stroke-width="1" opacity="0.6" stroke-dasharray="4,4" /><line x1="745.6" y1="364.4" x2="870.4" y2="328.9" stroke="#475569" stroke-width="1" opacity="0.6" stroke-dasharray="4,4" /><line x1="745.6" y1="364.4" x2="953.6" y2="222.2" stroke="#64748b" stroke-width="1.5" opacity="0.6" /><line x1="745.6" y1="364.4" x2="995.2" y2="293.3" stroke="#64748b" stroke-width="1.5" opacity="0.6" /><line x1="787.2" y1="257.8" x2="870.4" y2="328.9" stroke="#475569" stroke-width="1" opacity="0.6" stroke-dasharray="4,4" /><line x1="787.2" y1="257.8" x2="953.6" y2="222.2" stroke="#475569" stroke-width="1" opacity="0.6" stroke-dasharray="4,4" /><line x1="787.2" y1="257.8" x2="995.2" y2="293.3" stroke="#475569" stroke-width="1" opacity="0.6" stroke-dasharray="4,4" /><line x1="870.4" y1="328.9" x2="953.6" y2="222.2" stroke="#475569" stroke-width="1" opacity="0.6" stroke-dasharray="4,4" /><line x1="870.4" y1="328.9" x2="870.4" y2="435.6" stroke="#64748b" stroke-width="1.5" opacity="0.6" /><line x1="953.6" y1="222.2" x2="870.4" y2="435.6" stroke="#64748b" stroke-width="1.5" opacity="0.6" /><line x1="995.2" y1="293.3" x2="870.4" y2="435.6" stroke="#64748b" stroke-width="1.5" opacity="0.6" /><line x1="870.4" y1="328.9" x2="912.0" y2="613.3" stroke="#eab308" stroke-width="2" opacity="0.6" /><line x1="870.4" y1="435.6" x2="787.2" y2="577.8" stroke="#eab308" stroke-width="2" opacity="0.6" /><line x1="745.6" y1="364.4" x2="787.2" y2="577.8" stroke="#eab308" stroke-width="2" opacity="0.6" /><line x1="787.2" y1="577.8" x2="912.0" y2="613.3" stroke="#475569" stroke-width="1" opacity="0.6" stroke-dasharray="4,4" /><line x1="787.2" y1="577.8" x2="995.2" y2="542.2" stroke="#475569" stroke-width="1" opacity="0.6" stroke-dasharray="4,4" /><line x1="912.0" y1="613.3" x2="995.2" y2="542.2" stroke="#64748b" stroke-width="1.5" opacity="0.6" /><line x1="579.2" y1="186.7" x2="870.4" y2="328.9" stroke="#eab308" stroke-width="2" opacity="0.6" /><line x1="516.8" y1="311.1" x2="870.4" y2="435.6" stroke="#eab308" stroke-width="2" opacity="0.6" /><line x1="246.4" y1="151.1" x2="787.2" y2="257.8" stroke="#eab308" stroke-width="2" opacity="0.6" /><line x1="329.6" y1="613.3" x2="995.2" y2="542.2" stroke="#eab308" stroke-width="2" opacity="0.6" /></g><g><circle cx="454.4" cy="222.2" r="6" fill="#3b82f6" stroke="#ffffff" stroke-width="1.5" filter="url(#glow)" /><text x="462.4" y="214.2" font-size="12" fill="#ffffff" text-anchor="start" opacity="0.8">⚓</text><text x="466.4" y="226.2" font-family="'Segoe UI', 'Helvetica Neue', sans-serif" font-size="11" fill="#3b82f6" text-anchor="start" font-weight="600">Porto Novo</text><circle cx="579.2" cy="186.7" r="6" fill="#3b82f6" stroke="#ffffff" stroke-width="1.5" filter="url(#glow)" /><text x="591.2" y="190.7" font-family="'Segoe UI', 'Helvetica Neue', sans-serif" font-size="11" fill="#3b82f6" text-anchor="start" font-weight="600">Al-Manar</text><circle cx="371.2" cy="257.8" r="6" fill="#3b82f6" stroke="#ffffff" stroke-width="1.5" filter="url(#glow)" /><text x="379.2" y="249.8" font-size="12" fill="#ffffff" text-anchor="start" opacity="0.8">⚓</text><text x="383.2" y="261.8" font-family="'Segoe UI', 'Helvetica Neue', sans-serif" font-size="11" fill="#3b82f6" text-anchor="start" font-weight="600">Silva Bay</text><circle cx="516.8" cy="311.1" r="6" fill="#3b82f6" stroke="#ffffff" stroke-width="1.5" filter="url(#glow)" /><text x="524.8" y="303.1" font-size="12" fill="#ffffff" text-anchor="start" opacity="0.8">☠</text><text x="528.8" y="315.1" font-family="'Segoe UI', 'Helvetica Neue', sans-serif" font-size="11" fill="#3b82f6" text-anchor="start" font-weight="600">Corsair's Rest</text><circle cx="246.4" cy="151.1" r="6" fill="#06b6d4" stroke="#ffffff" stroke-width="1.5" filter="url(#glow)" /><text x="254.4" y="143.1" font-size="12" fill="#ffffff" text-anchor="start" opacity="0.8">⚓</text><text x="258.4" y="155.1" font-family="'Segoe UI', 'Helvetica Neue', sans-serif" font-size="11" fill="#06b6d4" text-anchor="start" font-weight="600">Ironhaven</text><circle cx="163.2" cy="222.2" r="6" fill="#06b6d4" stroke="#ffffff" stroke-width="1.5" filter="url(#glow)" /><text x="175.2" y="226.2" font-family="'Segoe UI', 'Helvetica Neue', sans-serif" font-size="11" fill="#06b6d4" text-anchor="start" font-weight="600">Stormwall</text><circle cx="308.8" cy="257.8" r="6" fill="#06b6d4" stroke="#ffffff" stroke-width="1.5" filter="url(#glow)" /><text x="320.8" y="261.8" font-family="'Segoe UI', 'Helvetica Neue', sans-serif" font-size="11" fill="#06b6d4" text-anchor="start" font-weight="600">Thornport</text><circle cx="371.2" cy="471.1" r="6" fill="#eab308" stroke="#ffffff" stroke-width="1.5" filter="url(#glow)" /><text x="383.2" y="475.1" font-family="'Segoe UI', 'Helvetica Neue', sans-serif" font-size="11" fill="#eab308" text-anchor="start" font-weight="600">Sun Harbor</text><circle cx="288.0" cy="542.2" r="6" fill="#eab308" stroke="#ffffff" stroke-width="1.5" filter="url(#glow)" /><text x="300.0" y="546.2" font-family="'Segoe UI', 'Helvetica Neue', sans-serif" font-size="11" fill="#eab308" text-anchor="start" font-weight="600">Palm Cove</text><circle cx="454.4" cy="506.7" r="6" fill="#eab308" stroke="#ffffff" stroke-width="1.5" filter="url(#glow)" /><text x="466.4" y="510.7" font-family="'Segoe UI', 'Helvetica Neue', sans-serif" font-size="11" fill="#eab308" text-anchor="start" font-weight="600">Iron Point</text><circle cx="329.6" cy="613.3" r="6" fill="#eab308" stroke="#ffffff" stroke-width="1.5" filter="url(#glow)" /><text x="341.6" y="617.3" font-family="'Segoe UI', 'Helvetica Neue', sans-serif" font-size="11" fill="#eab308" text-anchor="start" font-weight="600">Pearl Shallows</text><circle cx="787.2" cy="257.8" r="6" fill="#ef4444" stroke="#ffffff" stroke-width="1.5" filter="url(#glow)" /><text x="799.2" y="261.8" font-family="'Segoe UI', 'Helvetica Neue', sans-serif" font-size="11" fill="#ef4444" text-anchor="start" font-weight="600">Jade Port</text><circle cx="870.4" cy="328.9" r="6" fill="#ef4444" stroke="#ffffff" stroke-width="1.5" filter="url(#glow)" /><text x="878.4" y="320.9" font-size="12" fill="#ffffff" text-anchor="start" opacity="0.8">⚓</text><text x="858.4" y="332.9" font-family="'Segoe UI', 'Helvetica Neue', sans-serif" font-size="11" fill="#ef4444" text-anchor="end" font-weight="600">Monsoon Reach</text><circle cx="953.6" cy="222.2" r="6" fill="#ef4444" stroke="#ffffff" stroke-width="1.5" filter="url(#glow)" /><text x="941.6" y="226.2" font-family="'Segoe UI', 'Helvetica Neue', sans-serif" font-size="11" fill="#ef4444" text-anchor="end" font-weight="600">Silk Haven</text><circle cx="745.6" cy="364.4" r="6" fill="#ef4444" stroke="#ffffff" stroke-width="1.5" filter="url(#glow)" /><text x="753.6" y="356.4" font-size="12" fill="#ffffff" text-anchor="start" opacity="0.8">☄</text><text x="757.6" y="368.4" font-family="'Segoe UI', 'Helvetica Neue', sans-serif" font-size="11" fill="#ef4444" text-anchor="start" font-weight="600">Crosswind Isle</text><circle cx="995.2" cy="293.3" r="6" fill="#ef4444" stroke="#ffffff" stroke-width="1.5" filter="url(#glow)" /><text x="983.2" y="297.3" font-family="'Segoe UI', 'Helvetica Neue', sans-serif" font-size="11" fill="#ef4444" text-anchor="end" font-weight="600">Dragon's Gate</text><circle cx="870.4" cy="435.6" r="6" fill="#ef4444" stroke="#ffffff" stroke-width="1.5" filter="url(#glow)" /><text x="878.4" y="427.6" font-size="12" fill="#ffffff" text-anchor="start" opacity="0.8">☠</text><text x="858.4" y="439.6" font-family="'Segoe UI', 'Helvetica Neue', sans-serif" font-size="11" fill="#ef4444" text-anchor="end" font-weight="600">Spice Narrows</text><circle cx="787.2" cy="577.8" r="6" fill="#22c55e" stroke="#ffffff" stroke-width="1.5" filter="url(#glow)" /><text x="799.2" y="581.8" font-family="'Segoe UI', 'Helvetica Neue', sans-serif" font-size="11" fill="#22c55e" text-anchor="start" font-weight="600">Ember Isle</text><circle cx="912.0" cy="613.3" r="6" fill="#22c55e" stroke="#ffffff" stroke-width="1.5" filter="url(#glow)" /><text x="920.0" y="605.3" font-size="12" fill="#ffffff" text-anchor="start" opacity="0.8">⚓</text><text x="900.0" y="617.3" font-family="'Segoe UI', 'Helvetica Neue', sans-serif" font-size="11" fill="#22c55e" text-anchor="end" font-weight="600">Typhoon Anchorage</text><circle cx="995.2" cy="542.2" r="6" fill="#22c55e" stroke="#ffffff" stroke-width="1.5" filter="url(#glow)" /><text x="983.2" y="546.2" font-family="'Segoe UI', 'Helvetica Neue', sans-serif" font-size="11" fill="#22c55e" text-anchor="end" font-weight="600">Coral Throne</text></g><g><rect x="420" y="15" width="360" height="40" rx="6" fill="#0a1628" stroke="#2a9d8f" stroke-width="1" opacity="0.9" /><text x="600" y="42" font-family="'Georgia', serif" font-size="20" fill="#e9c46a" text-anchor="middle" font-weight="bold">The Known World — Portlight</text></g><g><rect x="20" y="735" width="1160" height="50" rx="6" fill="#0a1628" stroke="#264653" stroke-width="1" opacity="0.9" /><circle cx="40" cy="753" r="5" fill="#3b82f6" /><text x="50" y="757" font-family="sans-serif" font-size="10" fill="#94a3b8">Mediterranean</text><circle cx="161" cy="753" r="5" fill="#06b6d4" /><text x="171" y="757" font-family="sans-serif" font-size="10" fill="#94a3b8">North Atlantic</text><circle cx="289" cy="753" r="5" fill="#eab308" /><text x="299" y="757" font-family="sans-serif" font-size="10" fill="#94a3b8">West Africa</text><circle cx="396" cy="753" r="5" fill="#ef4444" /><text x="406" y="757" font-family="sans-serif" font-size="10" fill="#94a3b8">East Indies</text><circle cx="503" cy="753" r="5" fill="#22c55e" /><text x="513" y="757" font-family="sans-serif" font-size="10" fill="#94a3b8">South Seas</text><line x1="40" y1="773" x2="65" y2="773" stroke="#475569" stroke-width="1" stroke-dasharray="4,4" /><text x="70" y="777" font-family="sans-serif" font-size="9" fill="#64748b">Sloop</text><line x1="120" y1="773" x2="145" y2="773" stroke="#64748b" stroke-width="1.5" /><text x="150" y="777" font-family="sans-serif" font-size="9" fill="#64748b">Brigantine</text><line x1="230" y1="773" x2="255" y2="773" stroke="#eab308" stroke-width="2" /><text x="260" y="777" font-family="sans-serif" font-size="9" fill="#64748b">Galleon</text><line x1="322" y1="773" x2="347" y2="773" stroke="#ef4444" stroke-width="2.5" /><text x="352" y="777" font-family="sans-serif" font-size="9" fill="#64748b">Man Of War</text><text x="820" y="777" font-family="sans-serif" font-size="9" fill="#64748b">⚓ Shipyard</text><text x="920" y="777" font-family="sans-serif" font-size="9" fill="#64748b">☠ Black Market</text><text x="1050" y="777" font-family="sans-serif" font-size="9" fill="#64748b">☄ Safe Harbor</text></g><g opacity="0.5"><line x1="1140" y1="55" x2="1140" y2="105" stroke="#2a9d8f" stroke-width="1" /><line x1="1115" y1="80" x2="1165" y2="80" stroke="#2a9d8f" stroke-width="1" /><text x="1140" y="50" font-family="serif" font-size="12" fill="#2a9d8f" text-anchor="middle" font-weight="bold">N</text><text x="1140" y="112" font-family="serif" font-size="12" fill="#2a9d8f" text-anchor="middle" font-weight="bold">S</text><text x="1170" y="84" font-family="serif" font-size="12" fill="#2a9d8f" text-anchor="middle" font-weight="bold">E</text><text x="1110" y="84" font-family="serif" font-size="12" fill="#2a9d8f" text-anchor="middle" font-weight="bold">W</text></g></svg>